<?xml version="1.0" encoding="UTF-8"?>
<svg version="1.1" xmlns="http://www.w3.org/2000/svg" width="512" height="512">
<path d="M0 0 C1.06528931 0.21124512 1.06528931 0.21124512 2.15209961 0.42675781 C12.81063768 2.81666524 22.50707825 7.94037789 32 13.1875 C33.02037354 13.74638916 34.04074707 14.30527832 35.09204102 14.88110352 C38.29551943 16.64103767 41.49249798 18.41222904 44.6875 20.1875 C45.74227539 20.77257324 46.79705078 21.35764648 47.88378906 21.96044922 C50.96796988 23.67531485 54.0476267 25.39795147 57.125 27.125 C58.0528833 27.64384766 58.9807666 28.16269531 59.93676758 28.69726562 C77.528998 38.64299589 85.19406329 47.48387906 90.87866211 67.17797852 C98.52355969 95.15485756 100.80667574 125.13904439 100.890625 154.0390625 C100.89764304 155.53576183 100.90472989 157.03246084 100.91188049 158.52915955 C100.93130426 163.29027732 100.93631431 168.05134661 100.9375 172.8125 C100.93816278 174.02668169 100.93816278 174.02668169 100.93883896 175.2653923 C100.94564575 199.01530666 100.87933953 222.60828279 97.6875 246.1875 C97.5979303 246.86097473 97.5083606 247.53444946 97.41607666 248.22833252 C89.79878505 305.19825683 89.79878505 305.19825683 70.6875 320.1875 C44.61383649 339.45211762 10.8290127 348.12694107 -20.125 355.6875 C-20.84867767 355.86539062 -21.57235535 356.04328125 -22.31796265 356.2265625 C-24.38345663 356.73136227 -26.45090644 357.22695496 -28.51953125 357.71875 C-30.30580933 358.14510742 -30.30580933 358.14510742 -32.12817383 358.58007812 C-34.96086909 359.12042512 -37.44173666 359.31447412 -40.3125 359.1875 C-40.46162842 359.73172607 -40.61075684 360.27595215 -40.7644043 360.83666992 C-43.07259756 368.90506026 -46.05443194 376.69815497 -49.125 384.5 C-49.40540131 385.21360687 -49.68580261 385.92721375 -49.97470093 386.66244507 C-54.16812604 397.28174819 -58.68058921 407.70895079 -63.625 418 C-64.17454346 419.15346924 -64.72408691 420.30693848 -65.2902832 421.49536133 C-77.74424219 446.90337109 -77.74424219 446.90337109 -88.3125 452.1875 C-94.60052039 452.72208197 -98.20957824 451.66491206 -103.5 448.1875 C-104.9696428 447.27119068 -106.44257695 446.36014857 -107.91796875 445.453125 C-108.74989746 444.94072266 -109.58182617 444.42832031 -110.43896484 443.90039062 C-116.91442255 440.04042365 -123.58249788 436.50242945 -130.20883179 432.90917969 C-150.27391522 422.01857542 -160.30708656 411.4836294 -171.125 391.4375 C-171.49802246 390.75316895 -171.87104492 390.06883789 -172.25537109 389.36376953 C-174.84950825 384.45902676 -176.7034206 379.49398918 -178.3125 374.1875 C-179.57320312 374.21070313 -180.83390625 374.23390625 -182.1328125 374.2578125 C-209.18730924 374.60275537 -237.95238759 373.21364166 -261.58203125 358.81542969 C-266.218294 356.05124871 -270.99016701 353.5432441 -275.75 351 C-278.91977295 349.28631692 -282.08697187 347.56796608 -285.25341797 345.84814453 C-287.21436308 344.78363147 -289.17679833 343.72185611 -291.14111328 342.66357422 C-308.48499832 333.27147586 -316.92149539 324.69004694 -322.875 305.5 C-325.54047705 296.44854882 -326.9679119 287.20115767 -328.40625 277.890625 C-328.91646224 274.58937886 -329.4601371 271.31400868 -330.15625 268.046875 C-334.97049617 245.41991802 -334.68948848 221.92277077 -334.63015366 198.88557816 C-334.62491702 196.71561645 -334.62300103 194.54566914 -334.62149048 192.3757019 C-334.59505474 170.53748774 -334.06970241 148.87622026 -331.3125 127.1875 C-331.18439941 126.15302734 -331.05629883 125.11855469 -330.92431641 124.05273438 C-329.92566007 116.26713124 -328.6487058 108.91844044 -326.07080078 101.48413086 C-325.08239511 98.49059184 -324.32906774 95.46165531 -323.57641602 92.40185547 C-319.1432136 74.40992598 -313.56173422 57.59149094 -297.21484375 47.22265625 C-249.53125634 18.71280353 -190.66667397 10.00966677 -136.53344727 2.36779785 C-132.0516545 1.73385618 -127.57598485 1.07881821 -123.10693359 0.36010742 C-111.96436288 -1.42205839 -100.95878261 -2.50247955 -89.6875 -3 C-88.4470694 -3.05879333 -88.4470694 -3.05879333 -87.18157959 -3.11877441 C-58.28657725 -4.47816655 -28.50022028 -5.71672262 0 0 Z " fill="#F35070" transform="translate(372.3125,31.8125)"/>
<path d="M0 0 C1.34179321 0.78080933 1.34179321 0.78080933 2.71069336 1.57739258 C3.6672583 2.14611084 4.62382324 2.7148291 5.609375 3.30078125 C14.39542097 8.40536777 23.2677203 13.2674814 32.296875 17.92578125 C33.39870117 18.49449951 34.50052734 19.06321777 35.63574219 19.64916992 C38.20857173 20.97392699 40.78293431 22.29556465 43.359375 23.61328125 C43.359375 24.27328125 43.359375 24.93328125 43.359375 25.61328125 C42.60881836 25.74790771 41.85826172 25.88253418 41.08496094 26.02124023 C20.52421873 29.75209501 0.30793613 34.42082775 -19.91967773 39.65527344 C-22.56811514 40.33714919 -25.21788064 40.99904533 -27.87426758 41.64794922 C-31.20837242 42.50249324 -34.27875686 43.54881489 -37.47460938 44.79199219 C-39.88109841 45.70446165 -42.30833427 46.5262555 -44.75 47.33984375 C-83.91176957 60.08454415 -83.91176957 60.08454415 -111.640625 88.61328125 C-131.38888662 129.2318648 -129.58670355 185.31719454 -128.640625 229.61328125 C-128.61452148 230.86979492 -128.58841797 232.12630859 -128.56152344 233.42089844 C-128.34198289 273.56908879 -128.34198289 273.56908879 -120.640625 312.61328125 C-108.05920017 320.29576005 -91.07045187 323.56088242 -76.828125 326.42578125 C-75.86455078 326.62034912 -74.90097656 326.81491699 -73.90820312 327.01538086 C-57.29889213 330.18045161 -41.01881647 331.01938114 -24.140625 330.98828125 C-23.08025024 330.98806976 -22.01987549 330.98785828 -20.92736816 330.98764038 C-5.1188696 330.95617371 9.91494084 330.23808725 25.359375 326.61328125 C27.02974227 326.25814594 28.70031385 325.90397019 30.37109375 325.55078125 C56.18089418 319.82461403 81.45065299 309.76046584 104.359375 296.61328125 C103.30012817 296.19900879 103.30012817 296.19900879 102.21948242 295.77636719 C88.65648143 290.45189995 88.65648143 290.45189995 85.359375 286.61328125 C83.11625958 279.05285266 82.60555661 271.21072351 81.92675781 263.38452148 C81.73503011 261.18330258 81.53226044 258.98330228 81.328125 256.78320312 C80.658043 249.37688523 80.19803494 242.05692486 80.359375 234.61328125 C82.669375 234.61328125 84.979375 234.61328125 87.359375 234.61328125 C87.67817842 238.34193554 87.98849498 242.07125117 88.296875 245.80078125 C88.39186279 246.92669678 88.48685059 248.0526123 88.5847168 249.21264648 C89.03125821 254.69966402 89.41283781 260.16347467 89.5390625 265.66796875 C89.56363525 266.59971924 89.58820801 267.53146973 89.61352539 268.49145508 C89.65132841 270.23055202 89.66996144 271.97021409 89.66577148 273.7097168 C89.80623457 279.65437977 90.99775908 284.35660279 95.359375 288.61328125 C98.72317765 290.48618996 102.16710619 291.561975 105.859375 292.61328125 C106.79652344 292.91105469 107.73367188 293.20882813 108.69921875 293.515625 C116.24607107 296.01648702 116.24607107 296.01648702 123.74609375 294.44140625 C124.50535156 293.920625 125.26460938 293.39984375 126.046875 292.86328125 C126.81386719 292.3528125 127.58085937 291.84234375 128.37109375 291.31640625 C131.52020314 288.6189373 132.22868105 286.16621721 133.171875 282.17578125 C135.23448435 275.9879532 140.77781531 272.31181488 145.671875 268.23828125 C162.12384818 254.4849914 178.46798739 239.86581052 191.05957031 222.40039062 C192.49140393 220.43175387 193.9665268 218.49999345 195.4453125 216.56640625 C224.62364504 177.92093785 240.72766999 132.3032737 244.71362305 84.28930664 C244.82057495 83.02461548 244.82057495 83.02461548 244.9296875 81.734375 C245.01887451 80.61180298 245.01887451 80.61180298 245.10986328 79.46655273 C245.359375 77.61328125 245.359375 77.61328125 246.359375 75.61328125 C247.019375 75.61328125 247.679375 75.61328125 248.359375 75.61328125 C248.99767747 79.92391341 249.6171938 84.23707863 250.234375 88.55078125 C250.40839844 89.72447266 250.58242188 90.89816406 250.76171875 92.10742188 C254.08315915 115.54202916 254.73372696 138.93023479 254.67743301 162.55803299 C254.67179949 164.95795 254.66897465 167.35785997 254.66635132 169.75778198 C254.63023112 192.47936225 254.41234279 215.05995737 251.359375 237.61328125 C251.2698053 238.28675598 251.1802356 238.96023071 251.08795166 239.65411377 C243.47066005 296.62403808 243.47066005 296.62403808 224.359375 311.61328125 C198.28571149 330.87789887 164.5008877 339.55272232 133.546875 347.11328125 C132.82319733 347.29117187 132.09951965 347.4690625 131.35391235 347.65234375 C129.28841837 348.15714352 127.22096856 348.65273621 125.15234375 349.14453125 C123.36606567 349.57088867 123.36606567 349.57088867 121.54370117 350.00585938 C118.71100591 350.54620637 116.23013834 350.74025537 113.359375 350.61328125 C113.21024658 351.15750732 113.06111816 351.7017334 112.9074707 352.26245117 C110.59927744 360.33084151 107.61744306 368.12393622 104.546875 375.92578125 C104.26647369 376.63938812 103.98607239 377.352995 103.69717407 378.08822632 C99.50374896 388.70752944 94.99128579 399.13473204 90.046875 409.42578125 C89.49733154 410.57925049 88.94778809 411.73271973 88.3815918 412.92114258 C75.92763281 438.32915234 75.92763281 438.32915234 65.359375 443.61328125 C59.07135461 444.14786322 55.46229676 443.09069331 50.171875 439.61328125 C48.7022322 438.69697193 47.22929805 437.78592982 45.75390625 436.87890625 C44.92197754 436.36650391 44.09004883 435.85410156 43.23291016 435.32617188 C36.75745245 431.4662049 30.08937712 427.9282107 23.46304321 424.33496094 C3.39795978 413.44435667 -6.63521156 402.90941065 -17.453125 382.86328125 C-17.82614746 382.1789502 -18.19916992 381.49461914 -18.58349609 380.78955078 C-21.17763325 375.88480801 -23.0315456 370.91977043 -24.640625 365.61328125 C-25.90132812 365.63648438 -27.16203125 365.6596875 -28.4609375 365.68359375 C-55.51543424 366.02853662 -84.28051259 364.63942291 -107.91015625 350.24121094 C-112.546419 347.47702996 -117.31829201 344.96902535 -122.078125 342.42578125 C-125.24789795 340.71209817 -128.41509687 338.99374733 -131.58154297 337.27392578 C-133.54248808 336.20941272 -135.50492333 335.14763736 -137.46923828 334.08935547 C-154.81312332 324.69725711 -163.24962039 316.11582819 -169.203125 296.92578125 C-171.86860205 287.87433007 -173.2960369 278.62693892 -174.734375 269.31640625 C-175.24458724 266.01516011 -175.7882621 262.73978993 -176.484375 259.47265625 C-181.29862117 236.84569927 -181.01761348 213.34855202 -180.95827866 190.31135941 C-180.95304202 188.1413977 -180.95112603 185.97145039 -180.94961548 183.80148315 C-180.92317974 161.96326899 -180.39782741 140.30200151 -177.640625 118.61328125 C-177.51252441 117.57880859 -177.38442383 116.54433594 -177.25244141 115.47851562 C-176.25378507 107.69291249 -174.9768308 100.34422169 -172.39892578 92.90991211 C-171.41052011 89.91637309 -170.65719274 86.88743656 -169.90454102 83.82763672 C-165.4713386 65.83570723 -159.88985922 49.01727219 -143.54296875 38.6484375 C-118.3543007 23.58821961 -28.33668821 -16.81720844 0 0 Z " fill="#E93565" transform="translate(218.640625,40.38671875)"/>
<path d="M0 0 C0.68545898 0.23525391 1.37091797 0.47050781 2.07714844 0.71289062 C7.00268381 2.59271916 9.9057623 4.76903298 12.75 9.375 C13.59483428 12.56883119 13.81684516 15.70858217 14 19 C14.06880371 19.93408691 14.13760742 20.86817383 14.20849609 21.83056641 C15.06535124 34.32518336 15.40280875 46.85784179 15.75 59.375 C22.02 59.375 28.29 59.375 34.75 59.375 C34.5334375 56.65636719 34.5334375 56.65636719 34.3125 53.8828125 C31.04579303 11.71997342 31.04579303 11.71997342 37.75 3.375 C40.23232667 0.8647192 41.47488485 0.40378732 45.03515625 0.03125 C49.11671281 0.40893347 52.36223388 1.41775576 56.1875 2.875 C57.14172852 3.23271484 57.14172852 3.23271484 58.11523438 3.59765625 C59.66402732 4.17990924 61.20760253 4.77601069 62.75 5.375 C62.110625 5.684375 61.47125 5.99375 60.8125 6.3125 C58.81389179 7.2095163 58.81389179 7.2095163 57.75 8.375 C58.41386719 8.44976562 59.07773437 8.52453125 59.76171875 8.6015625 C60.64472656 8.73304687 61.52773438 8.86453125 62.4375 9 C63.74267578 9.17402344 63.74267578 9.17402344 65.07421875 9.3515625 C68.85115164 10.79617041 70.96371709 12.8206306 72.75 16.375 C73.61589686 20.21091934 73.81681505 24.01632759 74 27.9375 C74.06880371 29.03054443 74.13760742 30.12358887 74.20849609 31.24975586 C74.41400051 34.62398225 74.58570248 37.99853831 74.75 41.375 C74.86172074 43.4791804 74.97368947 45.58334766 75.0859375 47.6875 C75.33768302 52.58232623 75.55431106 57.47762687 75.75 62.375 C76.67039062 62.30539063 77.59078125 62.23578125 78.5390625 62.1640625 C88.78409047 61.72588411 95.62377984 63.65017723 104.75 68.375 C104.75 68.705 104.75 69.035 104.75 69.375 C102.275 69.87 102.275 69.87 99.75 70.375 C100.35328125 70.54515625 100.9565625 70.7153125 101.578125 70.890625 C110.45430443 73.58211167 110.45430443 73.58211167 112.75 77.375 C113.61948456 82.1708938 113.217916 85.48757311 110.9375 89.8125 C108.75 92.375 108.75 92.375 105.75 94.375 C103.5769043 94.52612305 103.5769043 94.52612305 101.07421875 94.38671875 C100.16349609 94.33966797 99.25277344 94.29261719 98.31445312 94.24414062 C97.36505859 94.18419922 96.41566406 94.12425781 95.4375 94.0625 C94.03081055 93.98999023 94.03081055 93.98999023 92.59570312 93.91601562 C87.90610479 93.65493157 83.38006559 93.19618462 78.75 92.375 C78.81058594 93.11435791 78.87117187 93.85371582 78.93359375 94.61547852 C81.13016122 121.76631965 81.13016122 121.76631965 80.75 134.375 C81.39582031 134.2821875 82.04164063 134.189375 82.70703125 134.09375 C90.10997315 133.52662996 95.87400361 135.15288509 102.625 137.9375 C103.43300049 138.25976562 104.24100098 138.58203125 105.07348633 138.9140625 C110.58371329 141.31661509 114.56614689 144.19261484 117.75 149.375 C118.98216122 153.94592067 118.46778412 158.02915477 116.25 162.1875 C110.1462028 167.52832255 105.87155493 170.009687 97.58203125 169.45898438 C96.64746094 169.36939453 95.71289062 169.27980469 94.75 169.1875 C93.30173828 169.08211914 93.30173828 169.08211914 91.82421875 168.97460938 C89.46306353 168.79927607 87.10695053 168.59899977 84.75 168.375 C84.81058594 169.21458252 84.87117187 170.05416504 84.93359375 170.91918945 C86.93914733 199.1107162 86.93914733 199.1107162 87.125 210.5 C87.15078125 211.24290283 87.1765625 211.98580566 87.203125 212.7512207 C87.21646144 216.28329434 86.85142633 218.21654856 84.9296875 221.21875 C83.15649605 222.97287488 81.62160703 224.4626171 79.5 225.75 C78.71882813 226.25660156 78.71882813 226.25660156 77.921875 226.7734375 C71.65509431 228.5092005 64.45720487 225.59087761 58.5 223.625 C57.71109375 223.38523437 56.9221875 223.14546875 56.109375 222.8984375 C50.3872185 221.02327135 47.86595582 218.83184161 44.69091797 213.64477539 C43.42013048 210.57925613 43.31544964 207.82226078 43.1171875 204.51171875 C43.07562531 203.84268021 43.03406311 203.17364166 42.99124146 202.48432922 C42.90489421 201.06491271 42.82278804 199.64523272 42.74462891 198.2253418 C42.62747146 196.10718298 42.49661275 193.990242 42.36328125 191.87304688 C41.80917172 182.69646221 41.64505059 173.56806896 41.75 164.375 C40.99750977 164.38523193 40.24501953 164.39546387 39.46972656 164.40600586 C33.4663398 164.47715956 27.70171663 164.155553 21.75 163.375 C21.90339844 164.22707031 22.05679688 165.07914063 22.21484375 165.95703125 C23.94220411 176.98944231 23.89151403 188.29636532 24 199.4375 C24.0213501 200.6030542 24.0427002 201.7686084 24.06469727 202.96948242 C24.0894989 209.20912253 23.92428932 213.93016019 20.75 219.375 C17.9375 221.875 17.9375 221.875 14.75 223.375 C9.5447675 222.91162619 4.63408247 221.23192917 -0.3125 219.625 C-1.10205078 219.38523437 -1.89160156 219.14546875 -2.70507812 218.8984375 C-7.6632644 217.28588404 -11.05426998 215.70041152 -14.25 211.375 C-15.89507731 205.86548385 -16.61856759 200.69013687 -16.8828125 194.96484375 C-16.92437469 194.19370743 -16.96593689 193.42257111 -17.00875854 192.62806702 C-17.13814817 190.18986093 -17.25653152 187.7512583 -17.375 185.3125 C-17.46156345 183.67379227 -17.54879755 182.03511982 -17.63671875 180.39648438 C-17.71935066 178.81513544 -17.80140161 177.23375602 -17.8828125 175.65234375 C-17.92028595 174.92611313 -17.9577594 174.19988251 -17.99636841 173.4516449 C-18.20756128 169.08520854 -18.28362053 164.74459565 -18.25 160.375 C-18.89582031 160.45621094 -19.54164063 160.53742188 -20.20703125 160.62109375 C-27.53230093 161.1121173 -33.39778386 159.63992703 -40.1875 157.125 C-41.00387939 156.8252124 -41.82025879 156.5254248 -42.66137695 156.21655273 C-52.79965453 152.27569094 -52.79965453 152.27569094 -55.25 147.375 C-56.07750784 141.5706236 -55.41692222 137.60083595 -51.9296875 132.8828125 C-46.9226557 128.38812814 -42.13578947 127.94543474 -35.75 128.125 C-35.01652344 128.13015625 -34.28304687 128.1353125 -33.52734375 128.140625 C-29.3417055 128.2005268 -25.37056497 128.56653472 -21.25 129.375 C-21.28029297 128.77252441 -21.31058594 128.17004883 -21.34179688 127.54931641 C-21.98671087 114.47988634 -22.39702621 101.46033271 -22.25 88.375 C-23.16652344 88.53162109 -23.16652344 88.53162109 -24.1015625 88.69140625 C-32.19837368 89.40985569 -38.38092741 87.16628964 -45.8125 84.125 C-46.78848145 83.72998291 -47.76446289 83.33496582 -48.77001953 82.92797852 C-56.64373093 79.56718097 -56.64373093 79.56718097 -59.25 75.375 C-60.28812867 70.95166913 -60.19275198 66.97002016 -57.85546875 63.015625 C-54.68471796 59.23006633 -52.04602116 56.82595722 -47.25 55.375 C-44.453125 55.14453125 -44.453125 55.14453125 -41.5 55.1875 C-40.53578125 55.19394531 -39.5715625 55.20039063 -38.578125 55.20703125 C-34.44382608 55.41568718 -30.35810141 55.8766834 -26.25 56.375 C-26.31058594 55.52494385 -26.37117188 54.6748877 -26.43359375 53.79907227 C-27.01090854 45.5962062 -27.54254266 37.39216851 -28.02294922 29.18310547 C-28.15812651 26.91590605 -28.30035337 24.64908209 -28.45751953 22.38330078 C-29.36791265 8.91415135 -29.36791265 8.91415135 -25 2.9375 C-17.65062845 -5.08713432 -9.30129916 -3.3246117 0 0 Z " fill="#F2EFFB" transform="translate(264.25,109.625)"/>
<path d="M0 0 C1.34179321 0.78080933 1.34179321 0.78080933 2.71069336 1.57739258 C3.6672583 2.14611084 4.62382324 2.7148291 5.609375 3.30078125 C14.39542097 8.40536777 23.2677203 13.2674814 32.296875 17.92578125 C33.39870117 18.49449951 34.50052734 19.06321777 35.63574219 19.64916992 C38.20857173 20.97392699 40.78293431 22.29556465 43.359375 23.61328125 C43.359375 24.27328125 43.359375 24.93328125 43.359375 25.61328125 C42.60881836 25.74790771 41.85826172 25.88253418 41.08496094 26.02124023 C20.52421873 29.75209501 0.30793613 34.42082775 -19.91967773 39.65527344 C-22.56811514 40.33714919 -25.21788064 40.99904533 -27.87426758 41.64794922 C-31.20837242 42.50249324 -34.27875686 43.54881489 -37.47460938 44.79199219 C-39.88109841 45.70446165 -42.30833427 46.5262555 -44.75 47.33984375 C-83.91176957 60.08454415 -83.91176957 60.08454415 -111.640625 88.61328125 C-131.38888662 129.2318648 -129.58670355 185.31719454 -128.640625 229.61328125 C-128.61452148 230.86979492 -128.58841797 232.12630859 -128.56152344 233.42089844 C-128.37842941 241.15925171 -128.06067568 248.88434867 -127.640625 256.61328125 C-127.58680664 257.65355469 -127.53298828 258.69382812 -127.47753906 259.765625 C-125.84909054 289.53771214 -123.6383251 324.11673111 -106.640625 349.61328125 C-111.1227962 348.25484314 -115.01812286 346.46454899 -119.11328125 344.19921875 C-120.01982704 343.6992186 -120.01982704 343.6992186 -120.94468689 343.18911743 C-122.22088583 342.48378936 -123.49573327 341.77601094 -124.76928711 341.06591797 C-126.67033697 340.00655247 -128.57592531 338.95577475 -130.48242188 337.90625 C-150.88967134 326.62551071 -162.95535192 318.14783655 -169.83203125 294.78955078 C-172.13040538 286.42339622 -173.41138704 277.88026381 -174.734375 269.31640625 C-175.24458724 266.01516011 -175.7882621 262.73978993 -176.484375 259.47265625 C-181.29862117 236.84569927 -181.01761348 213.34855202 -180.95827866 190.31135941 C-180.95304202 188.1413977 -180.95112603 185.97145039 -180.94961548 183.80148315 C-180.92317974 161.96326899 -180.39782741 140.30200151 -177.640625 118.61328125 C-177.51252441 117.57880859 -177.38442383 116.54433594 -177.25244141 115.47851562 C-176.25378507 107.69291249 -174.9768308 100.34422169 -172.39892578 92.90991211 C-171.41052011 89.91637309 -170.65719274 86.88743656 -169.90454102 83.82763672 C-165.4713386 65.83570723 -159.88985922 49.01727219 -143.54296875 38.6484375 C-118.3543007 23.58821961 -28.33668821 -16.81720844 0 0 Z " fill="#DE315F" transform="translate(218.640625,40.38671875)"/>
<path d="M0 0 C1.34179321 0.78080933 1.34179321 0.78080933 2.71069336 1.57739258 C3.6672583 2.14611084 4.62382324 2.7148291 5.609375 3.30078125 C14.39542097 8.40536777 23.2677203 13.2674814 32.296875 17.92578125 C33.39870117 18.49449951 34.50052734 19.06321777 35.63574219 19.64916992 C38.20857173 20.97392699 40.78293431 22.29556465 43.359375 23.61328125 C43.359375 24.27328125 43.359375 24.93328125 43.359375 25.61328125 C42.60881836 25.74790771 41.85826172 25.88253418 41.08496094 26.02124023 C20.52421873 29.75209501 0.30793613 34.42082775 -19.91967773 39.65527344 C-21.89469624 40.16376846 -23.87085285 40.66850114 -25.85403442 41.14416504 C-29.54900615 41.76489985 -29.54900615 41.76489985 -32.640625 43.61328125 C-37.70257704 44.10296756 -40.70156007 42.90206765 -45.12109375 40.5 C-45.72789474 40.17421463 -46.33469574 39.84842926 -46.95988464 39.51277161 C-48.92290672 38.45437579 -50.87547393 37.37817191 -52.828125 36.30078125 C-54.17420802 35.56951322 -55.52072752 34.83904808 -56.86767578 34.109375 C-67.23660171 28.47154111 -77.49521457 22.64430609 -87.640625 16.61328125 C-83.82677432 12.79943057 -77.76377891 12.2706032 -72.640625 10.92578125 C-71.98612366 10.75197937 -71.33162231 10.57817749 -70.6572876 10.39910889 C-59.68189063 7.49583667 -48.63788435 5.00927093 -37.515625 2.73828125 C-36.80664062 2.59339264 -36.09765625 2.44850403 -35.3671875 2.29922485 C-6.13248762 -3.63949809 -6.13248762 -3.63949809 0 0 Z " fill="#CC104A" transform="translate(218.640625,40.38671875)"/>
<path d="M0 0 C3.47549215 1.32891028 6.72871874 2.84628238 10 4.6171875 C10.95986816 5.13345703 11.91973633 5.64972656 12.90869141 6.18164062 C15.01311983 7.33440603 17.10891066 8.5030496 19.19677734 9.68554688 C24.39544629 12.61266579 29.40191537 15.24956237 35.0390625 17.2265625 C41.01466404 19.52376734 46.12801919 21.71825109 50 27 C53.87177277 36.30392455 54.2644157 46.99468047 55.14613342 56.91850281 C55.71279803 62.6738361 56.8411213 68.11517977 58.39453125 73.68359375 C58.59429565 74.40261871 58.79406006 75.12164368 58.99987793 75.86245728 C61.43454475 84.10916207 65.23227469 91.84841204 70 99 C65.5178288 97.64156189 61.62250214 95.85126774 57.52734375 93.5859375 C56.62079796 93.08593735 56.62079796 93.08593735 55.69593811 92.57583618 C54.41973917 91.87050811 53.14489173 91.16272969 51.87133789 90.45263672 C49.97028803 89.39327122 48.06469969 88.3424935 46.15820312 87.29296875 C25.76617962 76.02064608 13.66259232 67.5406002 6.81298828 44.18286133 C2.90274788 29.90286246 0.57798606 14.79644303 0 0 Z " fill="#CC104A" transform="translate(42,291)"/>
<path d="M0 0 C10.21687961 4.89721794 20.16898606 10.2344341 30.0625 15.75 C30.65004059 16.07751251 31.23758118 16.40502502 31.84292603 16.74246216 C37.91355079 20.12980451 43.97282378 23.53590452 50 27 C49.30766154 30.7805324 47.5874986 33.71106233 45.75 37.0625 C41.61034299 44.96422454 39.56435922 53.20209751 37.52001953 61.83984375 C36.80576579 64.80684707 36.00227735 67.74672221 35.1875 70.6875 C34.95417969 71.53699219 34.72085938 72.38648438 34.48046875 73.26171875 C34.32191406 73.83535156 34.16335937 74.40898437 34 75 C22.9156495 69.77962847 12.35331241 63.61856056 1.72265625 57.54492188 C-0.6959578 56.17252323 -3.1245232 54.82196768 -5.5625 53.484375 C-6.21814941 53.12134277 -6.87379883 52.75831055 -7.54931641 52.38427734 C-9.24612909 51.44624262 -10.94711902 50.51577505 -12.6484375 49.5859375 C-15 48 -15 48 -16 45 C-15.74975586 42.9855957 -15.74975586 42.9855957 -15.21484375 40.67578125 C-15.01697266 39.81944092 -14.81910156 38.96310059 -14.61523438 38.08081055 C-14.39158203 37.16726807 -14.16792969 36.25372559 -13.9375 35.3125 C-13.70998047 34.37510986 -13.48246094 33.43771973 -13.24804688 32.47192383 C-10.36656888 20.99579348 -6.90240221 9.74456783 0 0 Z " fill="#CC104A" transform="translate(62,91)"/>
<path d="M0 0 C0.70898438 0.41507813 1.41796875 0.83015625 2.1484375 1.2578125 C11.45998386 6.64633448 20.91258371 11.75346196 30.40771484 16.81103516 C32.54745891 17.95493164 34.67923771 19.11386171 36.80249023 20.28808594 C38.97393868 21.45065725 41.18834547 22.53566373 43.43383789 23.54785156 C51.41074636 27.41136199 51.41074636 27.41136199 53.01757812 31.7434082 C53.38249063 35.10012865 53.35466136 38.25308272 53.1875 41.625 C53.16767325 44.02993528 53.14946533 46.4348844 53.1328125 48.83984375 C53.10477539 50.03722168 53.07673828 51.23459961 53.04785156 52.46826172 C52.97665381 57.72309142 53.26045237 62.9431465 53.5625 68.1875 C53.64845917 69.9100907 53.73323654 71.63274111 53.81640625 73.35546875 C53.87699219 74.55816406 53.93757813 75.76085937 54 77 C42.58750483 71.52969221 31.5235594 65.47898852 20.49487305 59.28100586 C19.38281494 58.65718018 18.27075684 58.03335449 17.125 57.390625 C16.07054688 56.79830078 15.01609375 56.20597656 13.9296875 55.59570312 C11.40060743 54.21819751 8.85625964 52.95634905 6.25 51.734375 C3 50 3 50 2 47 C1.50914217 42.86703355 1.24217421 38.71290884 0.9375 34.5625 C0.84807129 33.35940186 0.75864258 32.15630371 0.66650391 30.91674805 C-0.05204878 20.5949098 -0.21223949 10.3407796 0 0 Z " fill="#DE315F" transform="translate(38,241)"/>
<path d="M0 0 C0.37697021 0.90016846 0.75394043 1.80033691 1.14233398 2.7277832 C16.79659222 40.33527244 16.79659222 40.33527244 38 75 C31.87252071 73.35503912 26.69839699 70.15012155 21.25 67 C19.19072425 65.81662863 17.13082063 64.63434923 15.0703125 63.453125 C14.0484082 62.86724609 13.02650391 62.28136719 11.97363281 61.67773438 C9.27110876 60.15296054 6.55004566 58.68019956 3.8046875 57.234375 C-10.14920889 49.86720762 -18.25268798 41.95019003 -26 28 C-26.38752441 27.30712891 -26.77504883 26.61425781 -27.17431641 25.90039062 C-28.40124984 23.69102669 -29.61074383 21.47315089 -30.8125 19.25 C-31.18568359 18.56550781 -31.55886719 17.88101562 -31.94335938 17.17578125 C-34.5369486 12.2710263 -36.39098392 7.30628037 -38 2 C-33.3919646 1.71321339 -28.78381063 1.42844243 -24.17553711 1.14550781 C-22.60909695 1.04905174 -21.04269011 0.95205281 -19.47631836 0.85449219 C-17.21997564 0.71405295 -14.96351878 0.5755906 -12.70703125 0.4375 C-12.01100296 0.39375244 -11.31497467 0.35000488 -10.59785461 0.30493164 C-7.05949975 0.09036324 -3.54492801 -0.04802612 0 0 Z " fill="#CC1049" transform="translate(232,404)"/>
<path d="M0 0 C14.655843 -0.94939093 23.62868432 0.13337886 35.63671875 8.67626953 C40.39548859 11.84289319 45.51583977 14.39871694 50.56640625 17.06396484 C57.18811488 20.58700272 63.74620726 24.10694839 70.00390625 28.25146484 C70.00390625 28.58146484 70.00390625 28.91146484 70.00390625 29.25146484 C68.25871704 29.28904907 68.25871704 29.28904907 66.47827148 29.32739258 C62.08903234 29.42281642 57.69990293 29.52268579 53.31079102 29.6237793 C51.42474974 29.66662564 49.53868202 29.70832643 47.65258789 29.7487793 C28.94774393 30.07703144 28.94774393 30.07703144 10.32592773 31.72314453 C-1.93754611 33.21202958 -10.87446073 26.34044132 -20.90429688 20.13427734 C-26.1039021 16.96787214 -31.43018553 14.02935004 -36.74609375 11.06396484 C-38.65871701 9.98921239 -40.57026866 8.91254946 -42.48046875 7.83349609 C-43.28194336 7.38208252 -44.08341797 6.93066895 -44.90917969 6.46557617 C-46.64287784 5.4569565 -48.32721098 4.36405336 -49.99609375 3.25146484 C-44.88913532 2.45164534 -39.82340692 1.9868287 -34.66015625 1.71630859 C-33.87177368 1.67278763 -33.08339111 1.62926666 -32.27111816 1.58442688 C-25.31431338 1.20793967 -18.35480651 0.88721605 -11.39431763 0.58718872 C-7.59367816 0.42240197 -3.79611845 0.24952205 0 0 Z " fill="#CC104A" transform="translate(306.99609375,27.74853515625)"/>
<path d="M0 0 C4.47578944 1.35535654 8.35415491 3.14213066 12.4375 5.4140625 C13.34048828 5.91406265 13.34048828 5.91406265 14.26171875 6.42416382 C16.17713702 7.48640597 18.08854282 8.55564994 20 9.625 C21.25105577 10.31945434 22.50235624 11.01346804 23.75390625 11.70703125 C30.14753549 15.25624899 36.51838224 18.84587765 42.875 22.4609375 C43.47634766 22.80170319 44.07769531 23.14246887 44.69726562 23.49356079 C48.88262954 25.88262954 48.88262954 25.88262954 50 27 C50.08858646 29.73894085 50.11523479 32.4525327 50.09765625 35.19140625 C50.0962413 36.01124496 50.09482635 36.83108368 50.09336853 37.67576599 C50.08775289 40.30471382 50.07519779 42.93357773 50.0625 45.5625 C50.05748701 47.34049357 50.05292376 49.11848846 50.04882812 50.89648438 C50.03777839 55.26435545 50.02050331 59.63216348 50 64 C40.56513704 58.99419035 31.16124241 53.93686088 21.80786133 48.78027344 C19.90785988 47.73367298 18.00570071 46.69106285 16.10351562 45.6484375 C14.86965874 44.96899134 13.63592985 44.28931267 12.40234375 43.609375 C11.31429443 43.01092773 10.22624512 42.41248047 9.10522461 41.79589844 C8.08050049 41.20325195 7.05577637 40.61060547 6 40 C4.33505493 39.15405273 4.33505493 39.15405273 2.63647461 38.29101562 C0 36 0 36 -0.68115234 32.24121094 C-0.68020715 30.73859736 -0.64657124 29.23576502 -0.5859375 27.734375 C-0.57744781 26.94097717 -0.56895813 26.14757935 -0.56021118 25.33013916 C-0.52668692 22.8020302 -0.4514198 20.27714037 -0.375 17.75 C-0.34489867 16.03390032 -0.31752314 14.31775051 -0.29296875 12.6015625 C-0.22690014 8.39980591 -0.1233937 4.20044819 0 0 Z " fill="#CC104A" transform="translate(39,206)"/>
<path d="M0 0 C0.89444824 0.52045898 1.78889648 1.04091797 2.71044922 1.57714844 C4.12028076 2.43034668 4.12028076 2.43034668 5.55859375 3.30078125 C6.55004395 3.87860352 7.54149414 4.45642578 8.56298828 5.05175781 C11.71675851 6.89009152 14.85730951 8.74949248 17.99609375 10.61328125 C22.10984066 13.049812 26.23630917 15.46266741 30.37109375 17.86328125 C31.30252197 18.42362061 32.2339502 18.98395996 33.19360352 19.5612793 C38.95341634 22.90429278 43.32112904 24.36857786 49.99609375 24.61328125 C49.99609375 24.94328125 49.99609375 25.27328125 49.99609375 25.61328125 C49.42503906 25.65815674 48.85398437 25.70303223 48.265625 25.74926758 C31.13898002 27.11579142 13.9280372 28.61521369 -3.00390625 31.61328125 C-3.00390625 30.95328125 -3.00390625 30.29328125 -3.00390625 29.61328125 C-3.8551709 29.35442139 -4.70643555 29.09556152 -5.58349609 28.82885742 C-9.17967139 27.55081625 -12.36672967 25.96527378 -15.73046875 24.1640625 C-16.35940033 23.82835739 -16.98833191 23.49265228 -17.63632202 23.14677429 C-18.9636507 22.43706108 -20.28977445 21.72509023 -21.61474609 21.01098633 C-23.59975526 19.94148745 -25.58854268 18.8793218 -27.578125 17.81835938 C-35.49045081 13.58492124 -43.28900282 9.19903142 -51.00390625 4.61328125 C-48.16585831 1.77523331 -45.04023103 1.82803775 -41.21484375 1.32421875 C-40.43758942 1.21606842 -39.66033508 1.10791809 -38.85952759 0.99649048 C-37.21077861 0.76900494 -35.56145129 0.54567856 -33.91162109 0.32617188 C-31.40827881 -0.00780014 -28.90729322 -0.3563023 -26.40625 -0.70703125 C-24.80090093 -0.92665784 -23.19543528 -1.14543427 -21.58984375 -1.36328125 C-20.48000626 -1.51792343 -20.48000626 -1.51792343 -19.3477478 -1.6756897 C-5.79722712 -3.45375695 -5.79722712 -3.45375695 0 0 Z " fill="#DE315F" transform="translate(265.00390625,34.38671875)"/>
<path d="M0 0 C29.91732078 0.66852285 53.82941375 4.27694091 80 19 C80.9708252 19.54350098 81.94165039 20.08700195 82.94189453 20.64697266 C87.89038298 23.4206829 92.82952484 26.21008922 97.7578125 29.01953125 C102.48599758 31.7147536 107.23597394 34.36871506 112 37 C108.31833599 38.22722134 107.42811345 37.61582077 103.875 36.25 C93.61585966 32.7291116 83.56960198 31.02012484 72.75390625 30.79296875 C56.33381219 30.38548947 44.65357245 28.33084857 30.8359375 18.84716797 C27.55507985 16.71020439 24.18691965 14.81312514 20.75 12.94140625 C20.1280072 12.60262955 19.5060144 12.26385284 18.86517334 11.91481018 C16.99460341 10.89939303 15.12236534 9.88710184 13.25 8.875 C10.91692337 7.61012136 8.59019259 6.33529876 6.265625 5.0546875 C5.27336914 4.51312012 4.28111328 3.97155273 3.25878906 3.41357422 C1 2 1 2 0 0 Z " fill="#DE315F" transform="translate(328,28)"/>
<path d="M0 0 C3.74609375 1.09375 3.74609375 1.09375 7.4375 2.5 C8.39172852 2.85771484 8.39172852 2.85771484 9.36523438 3.22265625 C10.91402732 3.80490924 12.45760253 4.40101069 14 5 C13.09314453 5.433125 13.09314453 5.433125 12.16796875 5.875 C8.83797822 7.60299509 5.70328383 9.59343234 4 13 C3.90231136 15.02547266 3.86922654 17.05420521 3.8671875 19.08203125 C3.86589844 20.32533203 3.86460937 21.56863281 3.86328125 22.84960938 C3.86908203 24.81124023 3.86908203 24.81124023 3.875 26.8125 C3.87113281 28.07771484 3.86726563 29.34292969 3.86328125 30.64648438 C3.87049155 37.68013309 4.10409023 44.61416422 4.78564453 51.6159668 C5.08878091 56.4015857 5 61.2047899 5 66 C-13.315 65.01 -13.315 65.01 -32 64 C-32.33 62.35 -32.66 60.7 -33 59 C-26.73 59 -20.46 59 -14 59 C-14.144375 57.18757813 -14.28875 55.37515625 -14.4375 53.5078125 C-17.70420697 11.34497342 -17.70420697 11.34497342 -11 3 C-7.55559558 -0.48319276 -4.77441321 -0.44179639 0 0 Z " fill="#D0CDF1" transform="translate(313,110)"/>
<path d="M0 0 C1.56240032 -0.02730408 3.1249427 -0.04653226 4.6875 -0.0625 C5.55761719 -0.07410156 6.42773438 -0.08570313 7.32421875 -0.09765625 C9.99119418 -0.00032138 12.39471655 0.44840519 15 1 C16.11669052 17.32773846 17.21760701 33.65210439 18 50 C17.17798096 49.97381592 16.35596191 49.94763184 15.5090332 49.9206543 C11.77705062 49.8165856 8.0453734 49.75163872 4.3125 49.6875 C3.01892578 49.64560547 1.72535156 49.60371094 0.39257812 49.56054688 C-0.85458984 49.54443359 -2.10175781 49.52832031 -3.38671875 49.51171875 C-4.53358154 49.48553467 -5.68044434 49.45935059 -6.86206055 49.43237305 C-10.95608756 50.17294823 -12.41487058 51.82051964 -15 55 C-16.12540899 59.3239398 -15.44088483 63.09986014 -13.5 67.0625 C-13.005 67.701875 -12.51 68.34125 -12 69 C-25.39182237 65.64012998 -25.39182237 65.64012998 -29 63 C-31.31052954 59.13221701 -33 55.53807587 -33 51 C-30.285957 47.90900658 -27.87753056 45.41703775 -24 44 C-21.16901674 43.83263726 -18.45122231 43.76636751 -15.625 43.8125 C-14.8825 43.81314453 -14.14 43.81378906 -13.375 43.81445312 C-9.14824732 43.84805805 -5.16167305 44.17427122 -1 45 C-0.505 44.01 -0.505 44.01 0 43 C0 43.66 0 44.32 0 45 C1.65 45 3.3 45 5 45 C4.01 44.67 3.02 44.34 2 44 C-0.38776806 13.87347956 -0.38776806 13.87347956 0 0 Z " fill="#D0CEF2" transform="translate(244,194)"/>
<path d="M0 0 C0 0.66 0 1.32 0 2 C-0.74765625 1.94199219 -1.4953125 1.88398437 -2.265625 1.82421875 C-3.25046875 1.77910156 -4.2353125 1.73398438 -5.25 1.6875 C-6.22453125 1.62949219 -7.1990625 1.57148437 -8.203125 1.51171875 C-11.15938421 1.75568574 -11.15938421 1.75568574 -13.1640625 4.12011719 C-15.40673002 7.63800364 -15.3986072 9.4343573 -15.171875 13.56640625 C-15.11378662 14.84829834 -15.05569824 16.13019043 -14.99584961 17.45092773 C-14.9140198 18.821459 -14.83206773 20.19198296 -14.75 21.5625 C-14.64763243 23.65826397 -14.55279653 25.75428352 -14.45835876 27.85041809 C-14.3950334 29.24570021 -14.32933334 30.64087661 -14.26124573 32.03593445 C-13.97462152 38.00645184 -13.89956627 43.96126463 -13.9375 49.9375 C-13.94378418 51.18672241 -13.94378418 51.18672241 -13.95019531 52.46118164 C-13.96219602 54.30749006 -13.98024236 56.15375829 -14 58 C-15.91808109 57.54762239 -17.83442033 57.08785537 -19.75 56.625 C-21.35101563 56.24214844 -21.35101563 56.24214844 -22.984375 55.8515625 C-27.79943485 54.49186943 -27.79943485 54.49186943 -30 53 C-30.62182617 50.76708984 -30.62182617 50.76708984 -30.79296875 47.9609375 C-30.9017334 46.39412231 -30.9017334 46.39412231 -31.01269531 44.7956543 C-31.07038086 43.66683838 -31.12806641 42.53802246 -31.1875 41.375 C-31.29529785 39.64407104 -31.29529785 39.64407104 -31.40527344 37.87817383 C-31.62350245 34.25295544 -31.8123924 30.62691776 -32 27 C-32.13620431 24.7043965 -32.27290663 22.40882249 -32.41015625 20.11328125 C-32.52584719 17.97148297 -32.63922679 15.82955826 -32.75 13.6875 C-32.80696045 12.68702637 -32.8639209 11.68655273 -32.92260742 10.65576172 C-33.1680326 5.06353925 -33.27291073 0.76702176 -29.5625 -3.75 C-21.06599654 -10.54720277 -8.4723183 -3.49288215 0 0 Z " fill="#D0CDF1" transform="translate(272,113)"/>
<path d="M0 0 C5.61 0.33 11.22 0.66 17 1 C18.02068362 10.84230634 18.96180513 20.64983058 19.47265625 30.53125 C19.53132874 31.63219749 19.53132874 31.63219749 19.59118652 32.75538635 C19.78634481 36.43658226 19.96705018 40.11762169 20.12646484 43.80053711 C20.19703938 45.17825103 20.26814277 46.55593799 20.33984375 47.93359375 C20.39519287 49.15103271 20.45054199 50.36847168 20.50756836 51.62280273 C21.03934268 55.26982015 22.1839554 57.8150073 24 61 C15.09327151 59.28328362 8.52331778 57.53179697 3 50 C2.34 50.66 1.68 51.32 1 52 C0.71013059 47.66275187 0.42555609 43.32519541 0.14550781 38.98730469 C0.04989396 37.51716145 -0.04707025 36.0471053 -0.14550781 34.57714844 C-0.92520278 22.91354826 -1.45490299 11.6392239 0 0 Z " fill="#D2CFF1" transform="translate(307,269)"/>
<path d="M0 0 C2.45873768 0.14058476 4.91685175 0.28722999 7.375 0.4375 C8.07367188 0.47681641 8.77234375 0.51613281 9.4921875 0.55664062 C14.7734375 0.88671875 14.7734375 0.88671875 17 2 C18.07524692 6.63213899 18.26748603 11.33869519 18.5 16.07421875 C18.54060547 16.83869827 18.58121094 17.6031778 18.62304688 18.39082336 C18.75189584 20.82289406 18.87631768 23.25516151 19 25.6875 C19.61885661 38.0411478 19.61885661 38.0411478 20.43359375 50.3828125 C20.49345459 51.18992676 20.55331543 51.99704102 20.61499023 52.82861328 C21.25774745 56.45364987 22.92772109 58.99185319 25 62 C17.84870304 60.12849037 11.50594543 57.50213658 5 54 C4.67 54.66 4.34 55.32 4 56 C2.48990268 50.52004336 1.63456962 45.43341699 1.3671875 39.765625 C1.32562531 39.00634705 1.28406311 38.24706909 1.24124146 37.46478271 C1.15536612 35.86831661 1.07320982 34.27164645 0.99462891 32.67480469 C0.87596978 30.26965677 0.74565766 27.86536548 0.61328125 25.4609375 C0.1600053 16.96776987 -0.13195978 8.50826384 0 0 Z " fill="#D1CEF1" transform="translate(246,265)"/>
<path d="M0 0 C14.625 0 14.625 0 20 1 C22.05416833 15.36083753 22.2288982 29.50898304 22 44 C19.62492145 44.02719556 17.25016036 44.04693247 14.875 44.0625 C13.87726563 44.07506836 13.87726563 44.07506836 12.859375 44.08789062 C8.69619765 44.10829836 5.16851045 43.69475174 1 43 C0.67 28.81 0.34 14.62 0 0 Z " fill="#CC124C" transform="translate(283,197)"/>
<path d="M0 0 C3.41697238 0.1391669 6.83348757 0.28749585 10.25 0.4375 C11.21808594 0.47681641 12.18617188 0.51613281 13.18359375 0.55664062 C14.58544922 0.61948242 14.58544922 0.61948242 16.015625 0.68359375 C16.87446289 0.72025146 17.73330078 0.75690918 18.61816406 0.79467773 C20.84960143 0.98703514 22.84982524 1.38846244 25 2 C26.09507419 7.2972793 26.12893641 12.3933117 26.09765625 17.7734375 C26.0962413 18.6971817 26.09482635 19.6209259 26.09336853 20.57266235 C26.08779609 23.50680862 26.07524869 26.44087701 26.0625 29.375 C26.05748144 31.37109264 26.05291915 33.36718649 26.04882812 35.36328125 C26.03783569 40.24221725 26.0205901 45.12109545 26 50 C25.1231958 49.71995117 24.2463916 49.43990234 23.34301758 49.15136719 C22.18439209 48.78688477 21.0257666 48.42240234 19.83203125 48.046875 C18.11463745 47.50305176 18.11463745 47.50305176 16.36254883 46.94824219 C12.19743703 45.77367643 8.30884649 45.29212519 4 45 C4 44.67 4 44.34 4 44 C5.65 44 7.3 44 9 44 C8.45805598 29.6585232 7.85993842 15.32620817 7 1 C4.69 1 2.38 1 0 1 C0 0.67 0 0.34 0 0 Z " fill="#D0CBEF" transform="translate(296,197)"/>
<path d="M0 0 C0.33 0 0.66 0 1 0 C1.69818317 17.48043789 -2.21951605 32.86178456 -14.125 46.0625 C-15.73068637 47.72718124 -17.35532172 49.37383097 -19 51 C-20.29744141 52.30130859 -20.29744141 52.30130859 -21.62109375 53.62890625 C-22.40613281 54.41136719 -23.19117188 55.19382812 -24 56 C-24.50402344 56.51304687 -25.00804687 57.02609375 -25.52734375 57.5546875 C-34.4155029 65.87656504 -50.03108944 73.1760156 -62.3125 73.25 C-63.199375 73.1675 -64.08625 73.085 -65 73 C-65 72.01 -65 71.02 -65 70 C-63.98421875 69.5153125 -62.9684375 69.030625 -61.921875 68.53125 C-48.86194169 62.21156771 -37.55600362 55.05685809 -27 45 C-26.39800781 44.484375 -25.79601562 43.96875 -25.17578125 43.4375 C-13.09897881 32.62749502 -5.57597819 14.82554201 0 0 Z " fill="#FEF6F8" transform="translate(455,290)"/>
<path d="M0 0 C1.18088669 2.36177338 1.1700531 3.89517405 1.24609375 6.53125 C1.27775635 7.47548828 1.30941895 8.41972656 1.34204102 9.39257812 C1.38929321 10.93075195 1.38929321 10.93075195 1.4375 12.5 C1.90589902 25.70015207 2.90677625 38.83885975 4 52 C8.95 53.65 13.9 55.3 19 57 C19 54.69 19 52.38 19 50 C19.33 50 19.66 50 20 50 C20 52.64 20 55.28 20 58 C19.20827393 57.98428955 18.41654785 57.9685791 17.60083008 57.95239258 C14.00479305 57.88993301 10.4088703 57.85097365 6.8125 57.8125 C5.56662109 57.78736328 4.32074219 57.76222656 3.03710938 57.73632812 C1.83505859 57.72666016 0.63300781 57.71699219 -0.60546875 57.70703125 C-1.71043701 57.6913208 -2.81540527 57.67561035 -3.95385742 57.65942383 C-8.78606326 58.19969209 -11.24688584 60.12797308 -14.375 63.75 C-16.37014522 67.74029044 -15.96901471 69.72018505 -15 74 C-15 74.99 -15 75.98 -15 77 C-28.42701633 71.04651163 -28.42701633 71.04651163 -31 65 C-31.25 62.125 -31.25 62.125 -31 60 C-31.66 59.67 -32.32 59.34 -33 59 C-28.71700651 54.41819301 -25.74278174 51.30841358 -19.203125 50.76953125 C-18.22859375 50.78371094 -17.2540625 50.79789063 -16.25 50.8125 C-15.28578125 50.81894531 -14.3215625 50.82539063 -13.328125 50.83203125 C-9.19382608 51.04068718 -5.10810141 51.5016834 -1 52 C-1.06058594 51.14994385 -1.12117188 50.2998877 -1.18359375 49.42407227 C-3.19199528 20.88739021 -3.19199528 20.88739021 -3.3125 10.8125 C-3.32925781 9.56082031 -3.34601563 8.30914062 -3.36328125 7.01953125 C-2.96975695 3.74862495 -2.23022532 2.37145331 0 0 Z " fill="#DEDCF8" transform="translate(239,114)"/>
<path d="M0 0 C2.64 0 5.28 0 8 0 C8.89345759 4.72156903 9.25317364 9.38849481 9.46484375 14.1796875 C9.5433657 15.76433553 9.62214991 17.34897058 9.70117188 18.93359375 C9.82054962 21.40400214 9.9374757 23.87446435 10.04956055 26.34521484 C10.16007723 28.74877299 10.28059286 31.15167567 10.40234375 33.5546875 C10.43263168 34.28203094 10.46291962 35.00937439 10.49412537 35.75875854 C10.8102614 41.80142466 12.08207373 47.24622119 14 53 C15.72394093 53.88811586 15.72394093 53.88811586 17.875 54.4375 C21.6515102 55.58079133 25.35804029 56.82648246 29.0625 58.1875 C30.00222656 58.53167969 30.94195312 58.87585938 31.91015625 59.23046875 C32.59980469 59.48441406 33.28945313 59.73835938 34 60 C32 62 32 62 29.8125 62.3125 C26.9061705 61.9895745 24.78524639 61.08808346 22.16015625 59.84765625 C19.44744035 58.7831728 16.7228613 58.23650396 13.875 57.625 C8.71014669 56.40327625 6.16129012 55.25139016 3 51 C1.4794516 47.9589032 1.64011934 44.73154785 1.46484375 41.38671875 C1.40037804 40.2386248 1.40037804 40.2386248 1.33460999 39.06733704 C1.24427991 37.43913354 1.15616351 35.81080597 1.07006836 34.18237305 C0.94003167 31.73514477 0.80165889 29.28849887 0.66210938 26.84179688 C0.16594339 17.88238828 -0.13528113 8.97565227 0 0 Z " fill="#CD144D" transform="translate(238,271)"/>
<path d="M0 0 C0.495 0.99 0.495 0.99 1 2 C2.7015625 1.87625 2.7015625 1.87625 4.4375 1.75 C9.56486617 1.71331044 13.52078524 3.6774442 18 6 C18.33 5.01 18.66 4.02 19 3 C19 4.32 19 5.64 19 7 C18.17798096 6.97381592 17.35596191 6.94763184 16.5090332 6.9206543 C12.77705062 6.8165856 9.0453734 6.75163872 5.3125 6.6875 C4.01892578 6.64560547 2.72535156 6.60371094 1.39257812 6.56054688 C0.14541016 6.54443359 -1.10175781 6.52832031 -2.38671875 6.51171875 C-3.53358154 6.48553467 -4.68044434 6.45935059 -5.86206055 6.43237305 C-9.95608756 7.17294823 -11.41487058 8.82051964 -14 12 C-15.12540899 16.3239398 -14.44088483 20.09986014 -12.5 24.0625 C-12.005 24.701875 -11.51 25.34125 -11 26 C-24.39182237 22.64012998 -24.39182237 22.64012998 -28 20 C-30.31052954 16.13221701 -32 12.53807587 -32 8 C-29.285957 4.90900658 -26.87753056 2.41703775 -23 1 C-20.16901674 0.83263726 -17.45122231 0.76636751 -14.625 0.8125 C-13.8825 0.81314453 -13.14 0.81378906 -12.375 0.81445312 C-8.14824732 0.84805805 -4.16167305 1.17427122 0 2 C0 1.34 0 0.68 0 0 Z " fill="#DEDEF9" transform="translate(243,237)"/>
<path d="M0 0 C2.31 0 4.62 0 7 0 C7.31880342 3.72865429 7.62911998 7.45796992 7.9375 11.1875 C8.03248779 12.31341553 8.12747559 13.43933105 8.2253418 14.59936523 C8.67188321 20.08638277 9.05346281 25.55019342 9.1796875 31.0546875 C9.20426025 31.98643799 9.22883301 32.91818848 9.25415039 33.87817383 C9.29195341 35.61727077 9.31058644 37.35693284 9.30639648 39.09643555 C9.44689769 45.04271209 10.65070599 49.73266428 15 54 C18.30336545 55.84987053 21.68874355 56.93976313 25.3125 58 C26.24384766 58.29777344 27.17519531 58.59554687 28.13476562 58.90234375 C30.41639874 59.62778607 32.70283842 60.32569767 35 61 C35 61.66 35 62.32 35 63 C30.16695506 63.30206531 26.80490519 62.81288048 22.25 60.91796875 C18.73687196 59.4846613 15.11794056 58.34892038 11.515625 57.16015625 C8.47423682 55.75752847 7.00163027 54.71090361 5 52 C2.67972181 44.47882615 2.24490181 36.58268678 1.56738281 28.77124023 C1.37565511 26.57002133 1.17288544 24.37002103 0.96875 22.16992188 C0.298668 14.76360398 -0.16134006 7.44364361 0 0 Z " fill="#CD154E" transform="translate(299,275)"/>
<path d="M0 0 C0.33 0.99 0.66 1.98 1 3 C0.2575 3.53625 -0.485 4.0725 -1.25 4.625 C-5.40756162 8.2156214 -7.79325834 11.18294944 -8.42578125 16.7421875 C-8.40976154 18.12021597 -8.37094204 19.49811815 -8.3125 20.875 C-8.29703125 21.6160498 -8.2815625 22.35709961 -8.265625 23.12060547 C-8.10480298 29.43689044 -7.6691736 35.73750779 -7.22265625 42.0390625 C-6.8672288 48.3619298 -6.91813188 54.66886558 -7 61 C-8.65 61 -10.3 61 -12 61 C-13.12178473 46.50033561 -14.1911298 31.98246657 -14.4375 17.4375 C-14.47166016 16.45265625 -14.50582031 15.4678125 -14.54101562 14.453125 C-14.57075742 9.76714057 -14.56438991 7.72131783 -11.59765625 3.9296875 C-7.49552835 0.88239249 -5.17552924 -0.2875294 0 0 Z " fill="#CD154D" transform="translate(245,105)"/>
<path d="M0 0 C0.33 0 0.66 0 1 0 C2.23860248 12.33554315 3.24143747 24.63445274 3.65795898 37.02783203 C3.68962158 37.89907715 3.72128418 38.77032227 3.75390625 39.66796875 C3.77783447 40.43391357 3.8017627 41.1998584 3.82641602 41.98901367 C3.93894255 44.20594653 3.93894255 44.20594653 5 47 C7.5342007 48.04004769 9.95185202 48.89978397 12.5625 49.6875 C13.27341797 49.91244141 13.98433594 50.13738281 14.71679688 50.36914062 C16.47448819 50.92358017 18.23684098 51.46320189 20 52 C20 52.66 20 53.32 20 54 C1.685 53.01 1.685 53.01 -17 52 C-17.33 50.35 -17.66 48.7 -18 47 C-11.73 47 -5.46 47 1 47 C0.855625 45.18757813 0.71125 43.37515625 0.5625 41.5078125 C-1.19622007 18.71335963 -1.19622007 18.71335963 -1.1875 8.3125 C-1.1884668 7.20189209 -1.1884668 7.20189209 -1.18945312 6.06884766 C-1.13694802 1.13694802 -1.13694802 1.13694802 0 0 Z " fill="#E1DEF7" transform="translate(298,122)"/>
<path d="M0 0 C0.99 0.33 1.98 0.66 3 1 C2.34 2.11375 1.68 3.2275 1 4.375 C-3.1405469 13.60710282 -1.45142959 25.4153641 -0.22265625 35.2109375 C0.32819082 42.11102182 0.06781343 49.08303004 0 56 C-1.65 56 -3.3 56 -5 56 C-5.29148149 51.59366804 -5.57590575 47.18694673 -5.85449219 42.77978516 C-5.94967656 41.28845689 -6.0466109 39.79723902 -6.14550781 38.30615234 C-6.43450855 33.93870246 -6.6904395 29.57143665 -6.89599609 25.19921875 C-6.96590008 23.72106117 -7.04184352 22.243178 -7.12353516 20.765625 C-7.23531509 18.60422923 -7.31013891 16.44450619 -7.375 14.28125 C-7.42398437 13.02376953 -7.47296875 11.76628906 -7.5234375 10.47070312 C-6.82479601 5.83829298 -5.27857597 4.28596015 -2 1 C-1.34 0.67 -0.68 0.34 0 0 Z " fill="#CD154D" transform="translate(299,113)"/>
<path d="M0 0 C2.31 0 4.62 0 7 0 C7.95629291 13.67840395 8.11916117 27.29096572 8 41 C6.02 41 4.04 41 2 41 C1.71145435 36.60773661 1.42678054 32.21524348 1.14550781 27.82250977 C1.04953573 26.33188299 0.95255296 24.8413209 0.85449219 23.35083008 C0.34270066 15.56167635 -0.14089828 7.81104826 0 0 Z " fill="#CD1850" transform="translate(235,198)"/>
<path d="M0 0 C-0.42152344 0.48210937 -0.84304687 0.96421875 -1.27734375 1.4609375 C-1.82519531 2.09257812 -2.37304688 2.72421875 -2.9375 3.375 C-3.48277344 4.00148437 -4.02804688 4.62796875 -4.58984375 5.2734375 C-6.80059533 7.98023029 -7.22472652 9.87354928 -7.375 13.3125 C-7.42398438 14.07175781 -7.47296875 14.83101562 -7.5234375 15.61328125 C-6.71093912 19.31803132 -4.94173652 20.658773 -2 23 C0.84228795 24.32135336 3.75725752 25.26646205 6.75 26.1875 C9.53092925 27.06774455 12.25838604 27.99689876 15 29 C15.33 29.66 15.66 30.32 16 31 C13.36 31 10.72 31 8 31 C8 30.34 8 29.68 8 29 C7.32066406 28.88140625 6.64132813 28.7628125 5.94140625 28.640625 C2.51206239 27.89372939 -0.73724978 26.87382788 -4.0625 25.75 C-5.27035156 25.35296875 -6.47820312 24.9559375 -7.72265625 24.546875 C-11.92295007 22.56437637 -13.94620785 20.1075843 -16 16 C-16.54016597 11.49271349 -16.60322525 8.05005877 -14.3125 4.0625 C-9.75589331 -0.00150056 -6.00490436 -0.23548645 0 0 Z " fill="#CE164E" transform="translate(217,239)"/>
<path d="M0 0 C0.98484375 0.01804688 1.9696875 0.03609375 2.984375 0.0546875 C4.10585937 0.08949219 4.10585937 0.08949219 5.25 0.125 C4.25 2.125 4.25 2.125 1.9375 3.4375 C-1.26111956 5.44593554 -2.8574792 6.83061195 -4.75 10.125 C-5.42604497 15.26628028 -5.37890366 19.57173886 -2.75 24.125 C-7.15875955 23.62114177 -9.57550966 22.2136933 -12.75 19.125 C-15.22601332 14.96079579 -14.90783642 11.75634568 -13.75 7.125 C-10.04041053 1.36874047 -6.73437662 -0.1603423 0 0 Z " fill="#CE154E" transform="translate(210.75,164.875)"/>
<path d="M0 0 C1.17295544 2.34591089 1.20072635 3.91357911 1.31640625 6.53125 C1.35838135 7.47548828 1.40035645 8.41972656 1.44360352 9.39257812 C1.50245728 10.93075195 1.50245728 10.93075195 1.5625 12.5 C1.6049585 13.55123047 1.64741699 14.60246094 1.69116211 15.68554688 C2.1342372 27.78853973 2.09579889 39.89101975 2 52 C1.34 52 0.68 52 0 52 C-1.52685595 41.68260447 -2.61007668 31.43165233 -3 21 C-3.02868164 20.24235352 -3.05736328 19.48470703 -3.08691406 18.70410156 C-3.16293355 16.38598833 -3.21164029 14.06901854 -3.25 11.75 C-3.27143066 11.03473145 -3.29286133 10.31946289 -3.31494141 9.58251953 C-3.34189624 5.4204929 -2.95442811 3.01662659 0 0 Z " fill="#EFE6F4" transform="translate(239,114)"/>
<path d="M0 0 C12.76501338 0.61557171 24.89649098 1.56204669 37 6 C37 6.33 37 6.66 37 7 C24.63051353 7.14420386 12.34858538 6.71511973 0 6 C0 4.02 0 2.04 0 0 Z " fill="#DEDDF9" transform="translate(284,240)"/>
<path d="M0 0 C0.33 0 0.66 0 1 0 C1 2.31 1 4.62 1 7 C1.92039062 6.93039063 2.84078125 6.86078125 3.7890625 6.7890625 C14.03409047 6.35088411 20.87377984 8.27517723 30 13 C30 13.33 30 13.66 30 14 C28.56359829 14.19573608 27.12580496 14.38127816 25.6875 14.5625 C24.88699219 14.66691406 24.08648437 14.77132812 23.26171875 14.87890625 C21 15 21 15 18 14 C14.57207508 13.74101721 11.15005685 13.55758845 7.71679688 13.39453125 C2.20158338 13.10079169 2.20158338 13.10079169 0 12 C0 8.04 0 4.08 0 0 Z " fill="#E0DAF5" transform="translate(339,165)"/>
<path d="M0 0 C11.00206331 -1.33551058 19.26293123 2.47756995 29 7 C25.69906275 8.01123873 22.83395321 8.05740716 19.39453125 7.9140625 C18.32912109 7.87023437 17.26371094 7.82640625 16.16601562 7.78125 C15.05935547 7.7296875 13.95269531 7.678125 12.8125 7.625 C11.13510742 7.55925781 11.13510742 7.55925781 9.42382812 7.4921875 C1.12959821 7.12959821 1.12959821 7.12959821 0 6 C-0.04080783 4.00041636 -0.04254356 1.99954746 0 0 Z " fill="#E0D8F3" transform="translate(345,244)"/>
<path d="M0 0 C2.35310125 2.13457525 3.64031841 4.0116596 4.875 6.9296875 C5.21466797 7.71472656 5.55433594 8.49976563 5.90429688 9.30859375 C6.26587891 10.15550781 6.62746094 11.00242187 7 11.875 C18.83908866 40.45959576 18.83908866 40.45959576 40 62 C39.01 62.33 38.02 62.66 37 63 C32.27010975 60.45608605 29.24526766 57.23949735 26.25 52.875 C25.82517334 52.26374268 25.40034668 51.65248535 24.96264648 51.02270508 C0 14.3394273 0 14.3394273 0 0 Z " fill="#EF486B" transform="translate(239,421)"/>
<path d="M0 0 C0.33 0 0.66 0 1 0 C1.33865898 3.52034206 1.66996095 7.04134018 2 10.5625 C2.14308594 12.0484668 2.14308594 12.0484668 2.2890625 13.56445312 C2.77008121 18.73540428 3.11653634 23.80684952 3 29 C2.01 29 1.02 29 0 29 C-0.84393671 22.45949052 -1.1093772 16.02381418 -1.125 9.4375 C-1.12951172 8.62748535 -1.13402344 7.8174707 -1.13867188 6.98291016 C-1.12374089 1.12374089 -1.12374089 1.12374089 0 0 Z " fill="#EAD1E4" transform="translate(298,122)"/>
<path d="M0 0 C0.99 0.99 1.98 1.98 3 3 C2.75 6.0625 2.75 6.0625 2.39453125 7.8828125 C1.92652533 10.39428981 1.67882324 12.89460133 1.4375 15.4375 C1.35371094 16.30246094 1.26992188 17.16742188 1.18359375 18.05859375 C1.12300781 18.69925781 1.06242187 19.33992188 1 20 C0.67 20 0.34 20 0 20 C0 13.4 0 6.8 0 0 Z " fill="#EE436A" transform="translate(463,108)"/>
</svg>
